<svg width="19" height="19" viewBox="0 0 19 19" fill="none" xmlns="http://www.w3.org/2000/svg">
<path d="M11.875 3.16666V1.58333M11.875 3.16666V4.74999M11.875 3.16666H8.3125M2.375 7.91666V4.74999C2.375 4.33007 2.54181 3.92734 2.83875 3.63041C3.13568 3.33348 3.53841 3.16666 3.95833 3.16666H5.54167M5.54167 1.58333V4.74999M16.625 7.91666V4.74999C16.625 4.33007 16.4582 3.92734 16.1613 3.63041C15.8643 3.33348 15.4616 3.16666 15.0417 3.16666H14.6458M2.375 7.91666V15.0417C2.375 15.4616 2.54181 15.8643 2.83875 16.1612C3.13568 16.4582 3.53841 16.625 3.95833 16.625H15.0417C15.4616 16.625 15.8643 16.4582 16.1613 16.1612C16.4582 15.8643 16.625 15.4616 16.625 15.0417V7.91666H2.375Z" stroke="currentColor" stroke-width="1.5" stroke-linecap="round" stroke-linejoin="round"/>
</svg>
