<svg width="19" height="19" viewBox="0 0 19 19" fill="none" xmlns="http://www.w3.org/2000/svg">
<path d="M2.375 5.54167V3.16667C2.375 2.9567 2.45841 2.75534 2.60687 2.60687C2.75534 2.45841 2.9567 2.375 3.16667 2.375H15.8333C16.0433 2.375 16.2447 2.45841 16.3931 2.60687C16.5416 2.75534 16.625 2.9567 16.625 3.16667V5.54167M2.375 5.54167L7.63958 10.0542C7.72648 10.1285 7.79625 10.2208 7.84408 10.3246C7.89191 10.4285 7.91667 10.5415 7.91667 10.6558V15.6117C7.9167 15.7319 7.94413 15.8506 7.99687 15.9587C8.04961 16.0667 8.12627 16.1614 8.22105 16.2354C8.31582 16.3094 8.42621 16.3609 8.54384 16.3858C8.66147 16.4108 8.78324 16.4087 8.89992 16.3796L10.4832 15.9838C10.6546 15.941 10.8067 15.8422 10.9155 15.7031C11.0242 15.5639 11.0833 15.3924 11.0833 15.2158V10.6558C11.0833 10.5415 11.1081 10.4285 11.1559 10.3246C11.2038 10.2208 11.2735 10.1285 11.3604 10.0542L16.625 5.54167M2.375 5.54167H16.625" stroke="currentColor" stroke-width="1.5" stroke-linecap="round" stroke-linejoin="round"/>
</svg>
