<svg width="20" height="19" viewBox="0 0 20 19" fill="none" xmlns="http://www.w3.org/2000/svg">
<path d="M8.78975 3.5625V7.25721C8.78992 7.33793 8.7695 7.41736 8.73044 7.48801C8.69138 7.55865 8.63496 7.61817 8.5665 7.66096L2.67967 11.3398C2.61144 11.3825 2.55517 11.4417 2.51612 11.5121C2.47707 11.5824 2.45653 11.6615 2.45642 11.742V12.4545C2.45642 12.5267 2.47288 12.598 2.50456 12.6629C2.53624 12.7278 2.5823 12.7846 2.63924 12.829C2.69618 12.8735 2.76251 12.9043 2.83316 12.9193C2.90382 12.9342 2.97696 12.9328 3.047 12.9152L8.19917 11.6264C8.26922 11.6088 8.34235 11.6075 8.41301 11.6224C8.48367 11.6374 8.54999 11.6682 8.60693 11.7126C8.66387 11.7571 8.70993 11.8139 8.74161 11.8788C8.77329 11.9437 8.78976 12.0149 8.78975 12.0872V14.4305C8.78968 14.4981 8.77517 14.565 8.74718 14.6266C8.71919 14.6881 8.67837 14.743 8.62746 14.7875L6.91746 16.2838C6.55488 16.602 6.84067 17.195 7.31488 17.1087L9.89255 16.6408C9.94856 16.6307 10.0059 16.6307 10.062 16.6408L12.6396 17.1087C13.1138 17.1958 13.3996 16.602 13.037 16.2846L11.327 14.7883C11.276 14.7437 11.2352 14.6887 11.2072 14.627C11.1792 14.5653 11.1647 14.4983 11.1648 14.4305V12.0872C11.1648 12.015 11.1812 11.9439 11.2129 11.879C11.2445 11.8142 11.2905 11.7574 11.3473 11.713C11.4042 11.6686 11.4704 11.6377 11.5409 11.6227C11.6115 11.6077 11.6845 11.609 11.7545 11.6264L16.9083 12.9152C16.9783 12.9327 17.0513 12.9339 17.1219 12.9189C17.1925 12.9039 17.2587 12.8731 17.3155 12.8286C17.3724 12.7842 17.4183 12.7275 17.45 12.6626C17.4816 12.5978 17.4981 12.5266 17.4981 12.4545V11.742C17.498 11.6615 17.4774 11.5824 17.4384 11.5121C17.3993 11.4417 17.3431 11.3825 17.2748 11.3398L11.388 7.66017C11.3197 7.61745 11.2633 7.55806 11.2243 7.48756C11.1852 7.41707 11.1647 7.3378 11.1648 7.25721V3.5625C11.1648 3.24756 11.0396 2.94551 10.8169 2.72281C10.5942 2.50011 10.2922 2.375 9.97725 2.375C9.66231 2.375 9.36026 2.50011 9.13756 2.72281C8.91487 2.94551 8.78975 3.24756 8.78975 3.5625V3.5625Z" stroke="currentColor" stroke-width="1.5" stroke-linecap="round" stroke-linejoin="round"/>
</svg>
