<svg width="16" height="16" viewBox="0 0 16 16" fill="none" xmlns="http://www.w3.org/2000/svg">
<path d="M4.66667 11.3333V6.66667M14 5.33333V10.6667C14 11.5507 13.6488 12.3986 13.0237 13.0237C12.3986 13.6488 11.5507 14 10.6667 14H5.33333C4.44928 14 3.60143 13.6488 2.97631 13.0237C2.35119 12.3986 2 11.5507 2 10.6667V5.33333C2 4.44928 2.35119 3.60143 2.97631 2.97631C3.60143 2.35119 4.44928 2 5.33333 2H10.6667C11.5507 2 12.3986 2.35119 13.0237 2.97631C13.6488 3.60143 14 4.44928 14 5.33333Z" stroke="currentColor" stroke-width="1.5" stroke-linecap="round" stroke-linejoin="round"/>
<path d="M7.33335 11.3333V9.16668M7.33335 6.66668V9.16668M7.33335 9.16668C7.33335 6.66668 11.3334 6.66668 11.3334 9.16668V11.3333M4.66669 4.67335L4.67335 4.66602" stroke="currentColor" stroke-width="1.5" stroke-linecap="round" stroke-linejoin="round"/>
</svg>
