<svg width="125" height="29" viewBox="0 0 125 29" fill="none" xmlns="http://www.w3.org/2000/svg">
<path d="M8.57812 8.34801C8.50994 7.7429 8.22869 7.27415 7.73438 6.94176C7.24006 6.60511 6.6179 6.43679 5.8679 6.43679C5.33097 6.43679 4.86648 6.52202 4.47443 6.69247C4.08239 6.85866 3.7777 7.08878 3.56037 7.38281C3.3473 7.67258 3.24077 8.00284 3.24077 8.37358C3.24077 8.68466 3.31321 8.95312 3.4581 9.17898C3.60724 9.40483 3.80114 9.59446 4.03977 9.74787C4.28267 9.89702 4.54261 10.0227 4.8196 10.125C5.09659 10.223 5.36293 10.304 5.61861 10.3679L6.89702 10.7003C7.31463 10.8026 7.7429 10.9411 8.18182 11.1158C8.62074 11.2905 9.0277 11.5206 9.4027 11.8061C9.7777 12.0916 10.0803 12.4453 10.3104 12.8672C10.5447 13.2891 10.6619 13.794 10.6619 14.3821C10.6619 15.1236 10.4702 15.782 10.0866 16.3572C9.70739 16.9325 9.15554 17.3864 8.43111 17.7188C7.71094 18.0511 6.83949 18.2173 5.81676 18.2173C4.83665 18.2173 3.98864 18.0618 3.27273 17.7507C2.55682 17.4396 1.99645 16.9986 1.59162 16.4276C1.18679 15.8523 0.963068 15.1705 0.920455 14.3821H2.90199C2.94034 14.8551 3.09375 15.2493 3.36222 15.5646C3.63494 15.8757 3.98224 16.108 4.40412 16.2614C4.83026 16.4105 5.29688 16.4851 5.80398 16.4851C6.36222 16.4851 6.85867 16.3977 7.29332 16.223C7.73224 16.044 8.07742 15.7969 8.32884 15.4815C8.58026 15.1619 8.70597 14.7891 8.70597 14.3629C8.70597 13.9751 8.59517 13.6577 8.37358 13.4105C8.15625 13.1634 7.86009 12.9588 7.48509 12.7969C7.11435 12.6349 6.6946 12.4922 6.22585 12.3686L4.67898 11.9467C3.63068 11.6612 2.79972 11.2415 2.18608 10.6875C1.5767 10.1335 1.27202 9.40057 1.27202 8.48864C1.27202 7.73437 1.47656 7.07599 1.88565 6.51349C2.29474 5.95099 2.84872 5.5142 3.54759 5.20312C4.24645 4.88778 5.0348 4.73011 5.91264 4.73011C6.79901 4.73011 7.58097 4.88565 8.25852 5.19673C8.94034 5.50781 9.47727 5.93608 9.86932 6.48153C10.2614 7.02273 10.4659 7.64489 10.483 8.34801H8.57812ZM12.8688 18V8.18182H14.7033V9.77983H14.8248C15.0293 9.23864 15.3638 8.81676 15.8283 8.5142C16.2928 8.20739 16.8489 8.05398 17.4966 8.05398C18.1529 8.05398 18.7026 8.20739 19.1458 8.5142C19.5932 8.82102 19.9235 9.2429 20.1365 9.77983H20.2388C20.4732 9.25568 20.8461 8.83807 21.3574 8.52699C21.8688 8.21165 22.4782 8.05398 23.1855 8.05398C24.0762 8.05398 24.8027 8.3331 25.3652 8.89134C25.932 9.44957 26.2154 10.2912 26.2154 11.4162V18H24.3042V11.5952C24.3042 10.9304 24.123 10.4489 23.7608 10.1506C23.3986 9.85227 22.9661 9.70312 22.4632 9.70312C21.8411 9.70312 21.3574 9.89489 21.0123 10.2784C20.6671 10.6577 20.4945 11.1456 20.4945 11.7422V18H18.5897V11.4737C18.5897 10.9411 18.4235 10.5128 18.0911 10.1889C17.7587 9.86506 17.3262 9.70312 16.7935 9.70312C16.4313 9.70312 16.0968 9.79901 15.79 9.99077C15.4874 10.1783 15.2424 10.4403 15.0549 10.777C14.8716 11.1136 14.78 11.5036 14.78 11.9467V18H12.8688ZM28.777 18V8.18182H30.6882V18H28.777ZM29.7422 6.6669C29.4098 6.6669 29.1243 6.55611 28.8857 6.33452C28.6513 6.10866 28.5341 5.8402 28.5341 5.52912C28.5341 5.21378 28.6513 4.94531 28.8857 4.72372C29.1243 4.49787 29.4098 4.38494 29.7422 4.38494C30.0746 4.38494 30.358 4.49787 30.5923 4.72372C30.831 4.94531 30.9503 5.21378 30.9503 5.52912C30.9503 5.8402 30.831 6.10866 30.5923 6.33452C30.358 6.55611 30.0746 6.6669 29.7422 6.6669ZM35.1706 4.90909V18H33.2594V4.90909H35.1706ZM41.9734 18.1982C41.006 18.1982 40.1729 17.9915 39.4741 17.5781C38.7795 17.1605 38.2425 16.5746 37.8633 15.8203C37.4883 15.0618 37.3008 14.1733 37.3008 13.1548C37.3008 12.1491 37.4883 11.2628 37.8633 10.4957C38.2425 9.72869 38.771 9.12997 39.4485 8.69957C40.1303 8.26918 40.9272 8.05398 41.8391 8.05398C42.3931 8.05398 42.93 8.1456 43.4499 8.32884C43.9698 8.51207 44.4364 8.79972 44.8498 9.19176C45.2631 9.58381 45.5891 10.093 45.8278 10.7195C46.0664 11.3416 46.1857 12.098 46.1857 12.9886V13.6662H38.381V12.2344H44.3129C44.3129 11.7315 44.2106 11.2862 44.006 10.8984C43.8015 10.5064 43.5138 10.1974 43.1431 9.97159C42.7766 9.74574 42.3462 9.63281 41.8519 9.63281C41.315 9.63281 40.8462 9.76491 40.4457 10.0291C40.0494 10.2891 39.7425 10.63 39.5252 11.0518C39.3121 11.4695 39.2056 11.9233 39.2056 12.4134V13.532C39.2056 14.1882 39.3207 14.7464 39.5508 15.2067C39.7852 15.6669 40.1112 16.0185 40.5288 16.2614C40.9464 16.5 41.4343 16.6193 41.9925 16.6193C42.3548 16.6193 42.685 16.5682 42.9833 16.4659C43.2816 16.3594 43.5394 16.2017 43.7567 15.9929C43.9741 15.7841 44.1403 15.5263 44.2553 15.2195L46.0643 15.5455C45.9194 16.0781 45.6594 16.5447 45.2844 16.9453C44.9137 17.3416 44.4471 17.6506 43.8846 17.8722C43.3263 18.0895 42.6893 18.1982 41.9734 18.1982ZM55.6635 10.5788L53.9313 10.8857C53.8588 10.6641 53.7438 10.4531 53.5861 10.2528C53.4327 10.0526 53.2239 9.88849 52.9597 9.76065C52.6955 9.63281 52.3652 9.56889 51.9689 9.56889C51.4277 9.56889 50.976 9.69034 50.6138 9.93324C50.2516 10.1719 50.0705 10.4808 50.0705 10.8601C50.0705 11.1882 50.1919 11.4524 50.4348 11.6527C50.6777 11.853 51.0698 12.017 51.611 12.1449L53.1706 12.5028C54.074 12.7116 54.7473 13.0334 55.1905 13.468C55.6337 13.9027 55.8553 14.4673 55.8553 15.1619C55.8553 15.75 55.6848 16.2741 55.3439 16.7344C55.0073 17.1903 54.5364 17.5483 53.9313 17.8082C53.3304 18.0682 52.6337 18.1982 51.8411 18.1982C50.7417 18.1982 49.8446 17.9638 49.15 17.495C48.4554 17.022 48.0293 16.3509 47.8716 15.4815L49.7189 15.2003C49.834 15.6818 50.0705 16.0462 50.4284 16.2933C50.7864 16.5362 51.253 16.6577 51.8283 16.6577C52.4547 16.6577 52.9554 16.5277 53.3304 16.2678C53.7054 16.0036 53.8929 15.6818 53.8929 15.3026C53.8929 14.9957 53.7779 14.7379 53.5478 14.5291C53.3219 14.3203 52.9746 14.1626 52.5059 14.0561L50.8439 13.6918C49.9277 13.483 49.2502 13.1506 48.8113 12.6946C48.3766 12.2386 48.1593 11.6612 48.1593 10.9624C48.1593 10.3828 48.3212 9.87571 48.6451 9.44105C48.9689 9.00639 49.4164 8.66761 49.9874 8.42472C50.5584 8.17756 51.2125 8.05398 51.9498 8.05398C53.0108 8.05398 53.8461 8.28409 54.4554 8.74432C55.0648 9.20028 55.4675 9.81179 55.6635 10.5788ZM67.6374 18V4.90909H69.6126V10.598H76.1389V4.90909H78.1204V18H76.1389V12.2919H69.6126V18H67.6374ZM85.0749 18.1982C84.1076 18.1982 83.2745 17.9915 82.5756 17.5781C81.881 17.1605 81.3441 16.5746 80.9648 15.8203C80.5898 15.0618 80.4023 14.1733 80.4023 13.1548C80.4023 12.1491 80.5898 11.2628 80.9648 10.4957C81.3441 9.72869 81.8725 9.12997 82.5501 8.69957C83.2319 8.26918 84.0288 8.05398 84.9407 8.05398C85.4947 8.05398 86.0316 8.1456 86.5515 8.32884C87.0714 8.51207 87.538 8.79972 87.9513 9.19176C88.3647 9.58381 88.6907 10.093 88.9293 10.7195C89.168 11.3416 89.2873 12.098 89.2873 12.9886V13.6662H81.4826V12.2344H87.4144C87.4144 11.7315 87.3121 11.2862 87.1076 10.8984C86.9031 10.5064 86.6154 10.1974 86.2447 9.97159C85.8782 9.74574 85.4478 9.63281 84.9535 9.63281C84.4165 9.63281 83.9478 9.76491 83.5472 10.0291C83.1509 10.2891 82.8441 10.63 82.6268 11.0518C82.4137 11.4695 82.3072 11.9233 82.3072 12.4134V13.532C82.3072 14.1882 82.4222 14.7464 82.6523 15.2067C82.8867 15.6669 83.2127 16.0185 83.6303 16.2614C84.0479 16.5 84.5359 16.6193 85.0941 16.6193C85.4563 16.6193 85.7866 16.5682 86.0849 16.4659C86.3832 16.3594 86.641 16.2017 86.8583 15.9929C87.0756 15.7841 87.2418 15.5263 87.3569 15.2195L89.1658 15.5455C89.021 16.0781 88.761 16.5447 88.386 16.9453C88.0153 17.3416 87.5487 17.6506 86.9862 17.8722C86.4279 18.0895 85.7908 18.1982 85.0749 18.1982ZM93.3191 4.90909V18H91.4078V4.90909H93.3191ZM95.8903 21.6818V8.18182H97.7567V9.77344H97.9165C98.0273 9.56889 98.1871 9.33239 98.396 9.06392C98.6048 8.79545 98.8945 8.56108 99.2653 8.3608C99.636 8.15625 100.126 8.05398 100.735 8.05398C101.528 8.05398 102.235 8.25426 102.858 8.65483C103.48 9.0554 103.968 9.63281 104.321 10.3871C104.679 11.1413 104.858 12.049 104.858 13.1101C104.858 14.1712 104.681 15.081 104.328 15.8395C103.974 16.5937 103.488 17.1754 102.87 17.5845C102.252 17.9893 101.547 18.1918 100.755 18.1918C100.158 18.1918 99.6701 18.0916 99.2908 17.8913C98.9158 17.6911 98.6218 17.4567 98.4087 17.1882C98.1957 16.9197 98.0316 16.6811 97.9165 16.4723H97.8015V21.6818H95.8903ZM97.7631 13.0909C97.7631 13.7812 97.8633 14.3864 98.0636 14.9062C98.2638 15.4261 98.5536 15.8331 98.9329 16.1271C99.3121 16.4169 99.7766 16.5618 100.326 16.5618C100.897 16.5618 101.375 16.4105 101.758 16.108C102.142 15.8011 102.431 15.3857 102.627 14.8615C102.828 14.3374 102.928 13.7472 102.928 13.0909C102.928 12.4432 102.83 11.8615 102.634 11.3459C102.442 10.8303 102.152 10.4233 101.765 10.125C101.381 9.8267 100.902 9.67756 100.326 9.67756C99.7724 9.67756 99.3036 9.82031 98.9201 10.1058C98.5408 10.3913 98.2532 10.7898 98.0572 11.3011C97.8612 11.8125 97.7631 12.4091 97.7631 13.0909ZM111.231 18.1982C110.264 18.1982 109.431 17.9915 108.732 17.5781C108.037 17.1605 107.5 16.5746 107.121 15.8203C106.746 15.0618 106.559 14.1733 106.559 13.1548C106.559 12.1491 106.746 11.2628 107.121 10.4957C107.5 9.72869 108.029 9.12997 108.706 8.69957C109.388 8.26918 110.185 8.05398 111.097 8.05398C111.651 8.05398 112.188 8.1456 112.708 8.32884C113.228 8.51207 113.694 8.79972 114.108 9.19176C114.521 9.58381 114.847 10.093 115.086 10.7195C115.324 11.3416 115.444 12.098 115.444 12.9886V13.6662H107.639V12.2344H113.571C113.571 11.7315 113.468 11.2862 113.264 10.8984C113.059 10.5064 112.772 10.1974 112.401 9.97159C112.034 9.74574 111.604 9.63281 111.11 9.63281C110.573 9.63281 110.104 9.76491 109.703 10.0291C109.307 10.2891 109 10.63 108.783 11.0518C108.57 11.4695 108.463 11.9233 108.463 12.4134V13.532C108.463 14.1882 108.578 14.7464 108.809 15.2067C109.043 15.6669 109.369 16.0185 109.787 16.2614C110.204 16.5 110.692 16.6193 111.25 16.6193C111.613 16.6193 111.943 16.5682 112.241 16.4659C112.539 16.3594 112.797 16.2017 113.015 15.9929C113.232 15.7841 113.398 15.5263 113.513 15.2195L115.322 15.5455C115.177 16.0781 114.917 16.5447 114.542 16.9453C114.172 17.3416 113.705 17.6506 113.142 17.8722C112.584 18.0895 111.947 18.1982 111.231 18.1982ZM117.564 18V8.18182H119.411V9.74148H119.514C119.693 9.21307 120.008 8.79758 120.46 8.49503C120.916 8.18821 121.431 8.0348 122.007 8.0348C122.126 8.0348 122.267 8.03906 122.428 8.04759C122.595 8.05611 122.725 8.06676 122.818 8.07955V9.90767C122.742 9.88636 122.605 9.86293 122.409 9.83736C122.213 9.80753 122.017 9.79261 121.821 9.79261C121.369 9.79261 120.967 9.88849 120.613 10.0803C120.264 10.2678 119.987 10.5298 119.782 10.8665C119.578 11.1989 119.475 11.5781 119.475 12.0043V18H117.564Z" fill="#E3B967"/>
<path d="M48 20V20C54.956 25.1414 64.33 25.5675 71.7238 21.0784L73.5 20" stroke="#E3B967"/>
</svg>
