<svg width="16" height="16" viewBox="0 0 16 16" fill="none" xmlns="http://www.w3.org/2000/svg">
<path d="M4.66669 6L8.00002 8.33333L11.3334 6" stroke="currentColor" stroke-width="1.5" stroke-linecap="round" stroke-linejoin="round"/>
<path d="M1.33331 11.3333V4.66665C1.33331 4.31302 1.47379 3.97389 1.72384 3.72384C1.97389 3.47379 2.31302 3.33331 2.66665 3.33331H13.3333C13.6869 3.33331 14.0261 3.47379 14.2761 3.72384C14.5262 3.97389 14.6666 4.31302 14.6666 4.66665V11.3333C14.6666 11.6869 14.5262 12.0261 14.2761 12.2761C14.0261 12.5262 13.6869 12.6666 13.3333 12.6666H2.66665C2.31302 12.6666 1.97389 12.5262 1.72384 12.2761C1.47379 12.0261 1.33331 11.6869 1.33331 11.3333Z" stroke="currentColor" stroke-width="1.5"/>
</svg>
