<svg width="16" height="16" viewBox="0 0 16 16" fill="none" xmlns="http://www.w3.org/2000/svg">
<path d="M14 4.90197V11.098C14 11.1694 13.9809 11.2395 13.9447 11.3011C13.9085 11.3626 13.8565 11.4133 13.794 11.448L8.194 14.5586C8.13464 14.5916 8.06788 14.6088 8 14.6088C7.93212 14.6088 7.86536 14.5916 7.806 14.5586L2.206 11.448C2.14354 11.4133 2.0915 11.3626 2.05528 11.3011C2.01905 11.2395 1.99997 11.1694 2 11.098V4.90197C2.00008 4.83067 2.01923 4.76069 2.05545 4.69927C2.09167 4.63785 2.14364 4.58722 2.206 4.55264L7.806 1.44131C7.86536 1.40839 7.93212 1.39111 8 1.39111C8.06788 1.39111 8.13464 1.40839 8.194 1.44131L13.794 4.55264C13.8564 4.58722 13.9083 4.63785 13.9446 4.69927C13.9808 4.76069 13.9999 4.83067 14 4.90197V4.90197Z" stroke="currentColor" stroke-width="1.5" stroke-linecap="round" stroke-linejoin="round"/>
<path d="M2.35199 4.86266L7.80532 7.89199C7.86477 7.92503 7.93165 7.94237 7.99966 7.94237C8.06766 7.94237 8.13455 7.92503 8.19399 7.89199L13.6667 4.85199M7.99999 14V7.99999" stroke="currentColor" stroke-width="1.5" stroke-linecap="round" stroke-linejoin="round"/>
<path d="M7.794 7.886L2.594 4.99667C2.53309 4.96289 2.46442 4.9456 2.39478 4.94651C2.32514 4.94741 2.25694 4.96649 2.19694 5.00185C2.13693 5.0372 2.0872 5.08762 2.05266 5.14809C2.01812 5.20857 1.99997 5.27702 2 5.34667V11.098C1.99997 11.1694 2.01905 11.2395 2.05528 11.3011C2.0915 11.3626 2.14354 11.4134 2.206 11.448L7.406 14.3367C7.46691 14.3704 7.53558 14.3877 7.60522 14.3868C7.67486 14.3859 7.74306 14.3668 7.80306 14.3315C7.86307 14.2961 7.9128 14.2457 7.94734 14.1852C7.98188 14.1248 8.00003 14.0563 8 13.9867V8.23533C7.99992 8.16403 7.98077 8.09404 7.94455 8.03262C7.90834 7.9712 7.85636 7.92058 7.794 7.886V7.886Z" fill="currentColor" stroke="currentColor" stroke-width="1.5" stroke-linejoin="round"/>
</svg>
