<svg width="16" height="16" viewBox="0 0 16 16" fill="none" xmlns="http://www.w3.org/2000/svg">
<g clip-path="url(#clip0_40_116)">
<path d="M15.3334 2.00664C15.3334 2.00664 13.988 2.80131 13.24 3.02664C12.8385 2.56498 12.3049 2.23777 11.7114 2.08926C11.1178 1.94075 10.493 1.97811 9.92141 2.19628C9.3498 2.41445 8.85898 2.80291 8.51534 3.30912C8.1717 3.81533 7.99182 4.41487 8.00002 5.02664V5.69331C6.82844 5.72369 5.66754 5.46385 4.62069 4.93694C3.57385 4.41003 2.67357 3.6324 2.00002 2.67331C2.00002 2.67331 -0.666646 8.67331 5.33335 11.34C3.96037 12.272 2.32479 12.7393 0.666687 12.6733C6.66669 16.0066 14 12.6733 14 5.00664C14 4.82131 13.9814 4.63598 13.9467 4.45331C14.6267 3.78264 15.3334 2.00664 15.3334 2.00664Z" stroke="currentColor" stroke-width="1.5" stroke-linecap="round" stroke-linejoin="round"/>
</g>
<defs>
<clipPath id="clip0_40_116">
<rect width="16" height="16" fill="white"/>
</clipPath>
</defs>
</svg>
